#!OML:ASF E:\Mandelcareful walks\Project 1\Capture day 1\Session 1\Subject1.ASF
:FULLY-SPECIFIED
:DEGREES
659
root -3.67136 15.5917 -1.21969 -348.039 83.7482 -368.11
lowerback 20.1091 4.58238 -5.90177
upperback 4.59985 4.84618 -2.8149
thorax -6.42801 2.53508 -0.935324
lowerneck -27.9724 -0.161087 -4.44942
upperneck 16.2989 2.22062 -2.74066
head 9.71576 0.406518 0.0936204
rclavicle -3.20043e-014 1.27222e-014
rhumerus -22.6972 11.9672 -91.1573
rradius 54.4834
rwrist -12.9721
rhand -9.6397 -30.0553
rfingers 7.12502
rthumb 16.3306 -59.3877
lclavicle -3.20043e-014 1.27222e-014
lhumerus -25.3705 -45.9873 84.9813
lradius 71.9037
lwrist 8.35435
lhand -18.5741 -10.5106
lfingers 7.12502
lthumb 7.71623 19.3286
rfemur -30.3 -16.2961 10.2819
rtibia 49.5559
rfoot -22.2159 -25.8088
rtoes -8.93507
lfemur -54.2034 9.54609 -15.0994
ltibia 55.5102
lfoot -16.9348 4.38052
ltoes -7.01847
660
root -3.61114 15.6154 -1.28918 -349.725 83.8522 -369.827
lowerback 20.2083 4.52982 -6.07535
upperback 4.53838 4.73517 -2.67891
thorax -6.56846 2.4843 -0.675042
lowerneck -27.6462 -0.417816 -4.68972
upperneck 16.0121 1.84823 -2.39334
head 9.55408 0.272505 0.195603
rclavicle -2.16675e-014 2.38542e-014
rhumerus -22.9927 12.106 -91.1842
rradius 54.4151
rwrist -12.881
rhand -9.76955 -30.2256
rfingers 7.12502
rthumb 16.2056 -59.5683
lclavicle -2.16675e-014 2.38542e-014
lhumerus -25.6508 -46.358 85.2248
lradius 71.8671
lwrist 8.52113
lhand -18.2782 -10.335
lfingers 7.12502
lthumb 8.00186 19.4935
rfemur -31.3087 -16.6393 10.2269
rtibia 51.1251
rfoot -19.6512 -26.1486
rtoes -8.16905
lfemur -53.9673 9.1751 -15.0776
ltibia 55.4713
lfoot -17.2498 4.54249
ltoes -6.64508
661
root -3.55623 15.6399 -1.35662 -350.477 83.8704 -370.521
lowerback 20.4659 4.47548 -6.38049
upperback 4.56847 4.59182 -2.54073
thorax -6.6987 2.4218 -0.336806
lowerneck -27.8712 -0.583167 -4.86493
upperneck 15.951 1.66576 -2.22322
head 9.56755 0.197563 0.254513
rclavicle -1.19271e-015 -3.02153e-014
rhumerus -22.7978 12.364 -91.1474
rradius 54.1324
rwrist -12.8991
rhand -9.82226 -30.8699
rfingers 7.12502
rthumb 16.1548 -60.2166
lclavicle -1.19271e-015 -3.02153e-014
lhumerus -25.7298 -46.424 85.2458
lradius 72.0179
lwrist 8.87523
lhand -17.7882 -9.95784
lfingers 7.12502
lthumb 8.47475 19.8521
rfemur -32.5278 -16.9584 10.0275
rtibia 52.9737
rfoot -16.5988 -26.5796
rtoes -7.1682
lfemur -53.626 8.92143 -15.2004
ltibia 55.419
lfoot -17.5938 4.63711
ltoes -6.2277
662
root -3.50256 15.6579 -1.42075 -351.655 83.7922 -371.617
lowerback 20.7557 4.44896 -6.56857
upperback 4.58732 4.50236 -2.42081
thorax -6.84889 2.38386 -0.0992424
lowerneck -28.2184 -0.727905 -4.96298
upperneck 16.0156 1.53141 -2.20118
head 9.64876 0.127514 0.256108
rclavicle 1.63003e-014 -3.77691e-014
rhumerus -22.6591 12.4783 -91.0534
rradius 53.9236
rwrist -12.7424
rhand -10.2815 -30.9369
rfingers 7.12502
rthumb 15.7126 -60.319
lclavicle 1.63003e-014 -3.77691e-014
lhumerus -25.9034 -46.5442 85.2214
lradius 72.2919
lwrist 9.09583
lhand -17.5757 -9.59233
lfingers 7.12502
lthumb 8.67985 20.2092
rfemur -33.8663 -17.2217 9.87851
rtibia 54.8706
rfoot -13.6191 -26.8306
rtoes -7.04813
lfemur -53.2383 8.86946 -15.3344
ltibia 55.3509
lfoot -17.8123 4.73921
ltoes -6.40086
663
root -3.45263 15.6695 -1.4756 -352.439 83.6091 -372.306
lowerback 20.9456 4.46943 -6.78496
upperback 4.62206 4.47612 -2.31675
thorax -6.93228 2.37605 0.128594
lowerneck -28.3634 -0.864229 -5.11048
upperneck 15.9577 1.40125 -2.14347
head 9.65216 0.0660449 0.278895
rclavicle -1.55052e-014 -1.70955e-014
rhumerus -22.6306 12.3596 -90.8506
rradius 53.9708
rwrist -12.4393
rhand -10.2582 -31.0017
rfingers 7.12502
rthumb 15.735 -60.382
lclavicle -1.55052e-014 -1.70955e-014
lhumerus -25.9224 -46.816 85.108
lradius 72.4578
lwrist 9.34967
lhand -17.3702 -9.12374
lfingers 7.12502
lthumb 8.87813 20.6695
rfemur -35.2357 -17.46 9.75184
rtibia 56.6464
rfoot -11.6397 -26.4874
rtoes -7.18336
lfemur -52.8487 8.93762 -15.4627
ltibia 55.2551
lfoot -17.9783 4.76519
ltoes -6.05517
664
root -3.4052 15.6822 -1.52247 -352.083 83.4362 -371.815
lowerback 21.3168 4.51974 -7.11424
upperback 4.55366 4.43516 -2.23349
thorax -7.22865 2.36658 0.382856
lowerneck -28.3725 -0.969676 -5.28614
upperneck 15.9433 1.30067 -2.02538
head 9.64779 0.0233242 0.33254
rclavicle 1.74931e-014 -1.90833e-014
rhumerus -22.9158 12.211 -90.6379
rradius 54.3838
rwrist -12.2129
rhand -10.0697 -31.265
rfingers 7.12502
rthumb 15.9165 -60.6309
lclavicle 1.74931e-014 -1.90833e-014
lhumerus -26.0792 -47.1461 85.0742
lradius 72.6536
lwrist 9.46282
lhand -17.1242 -8.72094
lfingers 7.12502
lthumb 9.11549 21.0621
rfemur -36.5422 -17.7365 9.52412
rtibia 58.1256
rfoot -10.5405 -25.1897
rtoes -7.16365
lfemur -52.4229 8.95303 -15.6464
ltibia 55.1474
lfoot -18.256 4.66412
ltoes -4.90464
